<?xml version="1.0" encoding="UTF-8" standalone="no"?>
<!DOCTYPE svg PUBLIC "-//W3C//DTD SVG 1.1//EN"
 "http://www.w3.org/Graphics/SVG/1.1/DTD/svg11.dtd">
<!-- Generated by graphviz version 2.43.0 (0)
 -->
<!-- Title: G Pages: 1 -->
<svg width="128pt" height="273pt"
 viewBox="0.00 0.00 127.61 273.00" xmlns="http://www.w3.org/2000/svg" xmlns:xlink="http://www.w3.org/1999/xlink">
<g id="graph0" class="graph" transform="scale(1 1) rotate(0) translate(4 269)">
<title>G</title>
<polygon fill="white" stroke="transparent" points="-4,4 -4,-269 123.61,-269 123.61,4 -4,4"/>
<g id="clust1" class="cluster">
<title>cluster_Global</title>
<path fill="none" stroke="gray" d="M20,-8C20,-8 99.61,-8 99.61,-8 105.61,-8 111.61,-14 111.61,-20 111.61,-20 111.61,-245 111.61,-245 111.61,-251 105.61,-257 99.61,-257 99.61,-257 20,-257 20,-257 14,-257 8,-251 8,-245 8,-245 8,-20 8,-20 8,-14 14,-8 20,-8"/>
<text text-anchor="middle" x="59.8" y="-244.2" font-family="Times,serif" font-size="11.00" fill="gray">Global</text>
</g>
<g id="clust2" class="cluster">
<title>cluster_\Webbtj</title>
<path fill="none" stroke="gray" d="M28,-16C28,-16 91.61,-16 91.61,-16 97.61,-16 103.61,-22 103.61,-28 103.61,-28 103.61,-218 103.61,-218 103.61,-224 97.61,-230 91.61,-230 91.61,-230 28,-230 28,-230 22,-230 16,-224 16,-218 16,-218 16,-28 16,-28 16,-22 22,-16 28,-16"/>
<text text-anchor="middle" x="59.8" y="-217.2" font-family="Times,serif" font-size="11.00" fill="gray">Webbtj</text>
</g>
<g id="clust3" class="cluster">
<title>cluster_\Webbtj\Clico</title>
<path fill="none" stroke="gray" d="M36,-24C36,-24 83.61,-24 83.61,-24 89.61,-24 95.61,-30 95.61,-36 95.61,-36 95.61,-191 95.61,-191 95.61,-197 89.61,-203 83.61,-203 83.61,-203 36,-203 36,-203 30,-203 24,-197 24,-191 24,-191 24,-36 24,-36 24,-30 30,-24 36,-24"/>
<text text-anchor="middle" x="59.8" y="-190.2" font-family="Times,serif" font-size="11.00" fill="gray">Clico</text>
</g>
<!-- \\Webbtj\\Clico\\Row -->
<g id="node1" class="node">
<title>\\Webbtj\\Clico\\Row</title>
<polygon fill="none" stroke="black" points="86.8,-176 32.8,-176 32.8,-140 86.8,-140 86.8,-176"/>
<text text-anchor="middle" x="59.8" y="-154.7" font-family="Courier,monospace" font-size="11.00">Row</text>
</g>
<!-- \\Webbtj\\Clico\\Table -->
<g id="node2" class="node">
<title>\\Webbtj\\Clico\\Table</title>
<polygon fill="none" stroke="black" points="86.8,-122 32.8,-122 32.8,-86 86.8,-86 86.8,-122"/>
<text text-anchor="middle" x="59.8" y="-100.7" font-family="Courier,monospace" font-size="11.00">Table</text>
</g>
<!-- \\Webbtj\\Clico\\Column -->
<g id="node3" class="node">
<title>\\Webbtj\\Clico\\Column</title>
<polygon fill="none" stroke="black" points="87.41,-68 32.2,-68 32.2,-32 87.41,-32 87.41,-68"/>
<text text-anchor="middle" x="59.8" y="-46.7" font-family="Courier,monospace" font-size="11.00">Column</text>
</g>
</g>
</svg>
